<svg xmlns="http://www.w3.org/2000/svg" xmlns:xlink="http://www.w3.org/1999/xlink" zoomAndPan="magnify" preserveAspectRatio="xMidYMid meet" version="1.0" viewBox="137.27 140.83 100.5 93.19"><defs><clipPath id="e09cc0e095"><path d="M 137.265625 141 L 198 141 L 198 233.828125 L 137.265625 233.828125 Z M 137.265625 141 " clip-rule="nonzero"/></clipPath><clipPath id="e49d233f43"><path d="M 137.265625 141 L 198 141 L 198 212 L 137.265625 212 Z M 137.265625 141 " clip-rule="nonzero"/></clipPath><clipPath id="e7e9439b83"><path d="M 219 140.828125 L 237.765625 140.828125 L 237.765625 160 L 219 160 Z M 219 140.828125 " clip-rule="nonzero"/></clipPath><clipPath id="68cb1f2ca8"><path d="M 175 142 L 237.765625 142 L 237.765625 233.828125 L 175 233.828125 Z M 175 142 " clip-rule="nonzero"/></clipPath><clipPath id="698641787a"><path d="M 175 142 L 237.765625 142 L 237.765625 211 L 175 211 Z M 175 142 " clip-rule="nonzero"/></clipPath></defs><g clip-path="url(#e09cc0e095)"><path fill="#213aaa" d="M 161.160156 145.503906 L 193.453125 177.796875 C 194.105469 178.445312 194.683594 179.152344 195.195312 179.917969 C 195.707031 180.679688 196.136719 181.488281 196.488281 182.335938 C 196.839844 183.1875 197.105469 184.0625 197.285156 184.964844 C 197.464844 185.867188 197.554688 186.777344 197.554688 187.695312 C 197.554688 188.613281 197.464844 189.523438 197.285156 190.425781 C 197.105469 191.328125 196.839844 192.203125 196.488281 193.050781 C 196.136719 193.902344 195.707031 194.707031 195.195312 195.472656 C 194.683594 196.238281 194.105469 196.945312 193.453125 197.59375 L 161.160156 229.886719 C 152.34375 238.707031 137.257812 232.457031 137.265625 219.976562 L 137.265625 155.390625 C 137.257812 142.933594 152.34375 136.683594 161.160156 145.503906 Z M 161.160156 145.503906 " fill-opacity="1" fill-rule="nonzero"/></g><g clip-path="url(#e49d233f43)"><path fill="#459ad7" d="M 161.160156 145.503906 C 152.394531 136.734375 137.480469 142.863281 137.273438 155.183594 C 137.273438 155.183594 188.085938 203.261719 180.007812 211.101562 L 193.484375 197.621094 C 194.132812 196.972656 194.714844 196.265625 195.222656 195.5 C 195.734375 194.738281 196.164062 193.929688 196.515625 193.082031 C 196.871094 192.230469 197.136719 191.355469 197.3125 190.453125 C 197.492188 189.554688 197.582031 188.644531 197.582031 187.722656 C 197.582031 186.804688 197.492188 185.894531 197.3125 184.992188 C 197.136719 184.089844 196.871094 183.214844 196.515625 182.367188 C 196.164062 181.515625 195.734375 180.710938 195.222656 179.945312 C 194.714844 179.179688 194.132812 178.472656 193.484375 177.824219 Z M 161.160156 145.503906 " fill-opacity="1" fill-rule="nonzero"/></g><g clip-path="url(#e7e9439b83)"><path fill="#ffffff" d="M 237.730469 150.082031 C 237.730469 150.683594 237.671875 151.277344 237.554688 151.867188 C 237.4375 152.457031 237.265625 153.027344 237.035156 153.582031 C 236.804688 154.136719 236.523438 154.664062 236.1875 155.164062 C 235.855469 155.664062 235.476562 156.125 235.050781 156.550781 C 234.625 156.976562 234.164062 157.355469 233.664062 157.6875 C 233.164062 158.023438 232.636719 158.304688 232.082031 158.535156 C 231.527344 158.765625 230.957031 158.9375 230.367188 159.054688 C 229.777344 159.171875 229.183594 159.230469 228.582031 159.230469 C 227.980469 159.230469 227.386719 159.171875 226.796875 159.054688 C 226.207031 158.9375 225.632812 158.765625 225.078125 158.535156 C 224.523438 158.304688 223.996094 158.023438 223.496094 157.6875 C 223 157.355469 222.535156 156.976562 222.113281 156.550781 C 221.6875 156.125 221.308594 155.664062 220.972656 155.164062 C 220.640625 154.664062 220.359375 154.136719 220.128906 153.582031 C 219.898438 153.027344 219.722656 152.457031 219.605469 151.867188 C 219.488281 151.277344 219.429688 150.683594 219.429688 150.082031 C 219.429688 149.480469 219.488281 148.886719 219.605469 148.296875 C 219.722656 147.707031 219.898438 147.136719 220.128906 146.582031 C 220.359375 146.023438 220.640625 145.496094 220.972656 145 C 221.308594 144.5 221.6875 144.035156 222.113281 143.613281 C 222.535156 143.1875 223 142.808594 223.496094 142.472656 C 223.996094 142.140625 224.523438 141.859375 225.078125 141.628906 C 225.632812 141.398438 226.207031 141.226562 226.796875 141.109375 C 227.386719 140.992188 227.980469 140.933594 228.582031 140.933594 C 229.183594 140.933594 229.777344 140.992188 230.367188 141.109375 C 230.957031 141.226562 231.527344 141.398438 232.082031 141.628906 C 232.636719 141.859375 233.164062 142.140625 233.664062 142.472656 C 234.164062 142.808594 234.625 143.1875 235.050781 143.613281 C 235.476562 144.035156 235.855469 144.5 236.1875 145 C 236.523438 145.496094 236.804688 146.023438 237.035156 146.582031 C 237.265625 147.136719 237.4375 147.707031 237.554688 148.296875 C 237.671875 148.886719 237.730469 149.480469 237.730469 150.082031 Z M 237.730469 150.082031 " fill-opacity="1" fill-rule="nonzero"/><path fill="#ffffff" d="M 237.730469 150.082031 C 237.730469 150.683594 237.671875 151.277344 237.554688 151.867188 C 237.4375 152.457031 237.265625 153.027344 237.035156 153.582031 C 236.804688 154.136719 236.523438 154.664062 236.1875 155.164062 C 235.855469 155.664062 235.476562 156.125 235.050781 156.550781 C 234.625 156.976562 234.164062 157.355469 233.664062 157.6875 C 233.164062 158.023438 232.636719 158.304688 232.082031 158.535156 C 231.527344 158.765625 230.957031 158.9375 230.367188 159.054688 C 229.777344 159.171875 229.183594 159.230469 228.582031 159.230469 C 227.980469 159.230469 227.386719 159.171875 226.796875 159.054688 C 226.207031 158.9375 225.632812 158.765625 225.078125 158.535156 C 224.523438 158.304688 223.996094 158.023438 223.496094 157.6875 C 223 157.355469 222.535156 156.976562 222.113281 156.550781 C 221.6875 156.125 221.308594 155.664062 220.972656 155.164062 C 220.640625 154.664062 220.359375 154.136719 220.128906 153.582031 C 219.898438 153.027344 219.722656 152.457031 219.605469 151.867188 C 219.488281 151.277344 219.429688 150.683594 219.429688 150.082031 C 219.429688 149.480469 219.488281 148.886719 219.605469 148.296875 C 219.722656 147.707031 219.898438 147.136719 220.128906 146.582031 C 220.359375 146.023438 220.640625 145.496094 220.972656 145 C 221.308594 144.5 221.6875 144.035156 222.113281 143.613281 C 222.535156 143.1875 223 142.808594 223.496094 142.472656 C 223.996094 142.140625 224.523438 141.859375 225.078125 141.628906 C 225.632812 141.398438 226.207031 141.226562 226.796875 141.109375 C 227.386719 140.992188 227.980469 140.933594 228.582031 140.933594 C 229.183594 140.933594 229.777344 140.992188 230.367188 141.109375 C 230.957031 141.226562 231.527344 141.398438 232.082031 141.628906 C 232.636719 141.859375 233.164062 142.140625 233.664062 142.472656 C 234.164062 142.808594 234.625 143.1875 235.050781 143.613281 C 235.476562 144.035156 235.855469 144.5 236.1875 145 C 236.523438 145.496094 236.804688 146.023438 237.035156 146.582031 C 237.265625 147.136719 237.4375 147.707031 237.554688 148.296875 C 237.671875 148.886719 237.730469 149.480469 237.730469 150.082031 Z M 237.730469 150.082031 " fill-opacity="1" fill-rule="nonzero"/></g><g clip-path="url(#68cb1f2ca8)"><path fill="#459ad7" d="M 233.625 177.875 L 201.332031 145.582031 C 192.664062 136.90625 169.558594 146.96875 177.464844 154.875 L 200.6875 178.105469 C 201.339844 178.753906 201.917969 179.460938 202.429688 180.222656 C 202.941406 180.988281 203.371094 181.792969 203.722656 182.644531 C 204.074219 183.492188 204.339844 184.367188 204.519531 185.269531 C 204.699219 186.171875 204.789062 187.082031 204.789062 188 C 204.789062 188.917969 204.699219 189.828125 204.519531 190.730469 C 204.339844 191.632812 204.074219 192.507812 203.722656 193.355469 C 203.371094 194.207031 202.941406 195.011719 202.429688 195.777344 C 201.917969 196.539062 201.339844 197.246094 200.6875 197.894531 L 177.480469 221.109375 C 170.40625 228.179688 192.75 238.605469 201.332031 230.023438 L 233.625 197.730469 C 234.28125 197.082031 234.863281 196.371094 235.378906 195.605469 C 235.894531 194.839844 236.328125 194.03125 236.679688 193.179688 C 237.035156 192.328125 237.304688 191.449219 237.484375 190.542969 C 237.664062 189.640625 237.753906 188.726562 237.753906 187.800781 C 237.753906 186.878906 237.664062 185.964844 237.484375 185.0625 C 237.304688 184.15625 237.035156 183.277344 236.679688 182.425781 C 236.328125 181.574219 235.894531 180.765625 235.378906 180 C 234.863281 179.234375 234.28125 178.523438 233.625 177.875 Z M 233.625 177.875 " fill-opacity="1" fill-rule="nonzero"/></g><g clip-path="url(#698641787a)"><path fill="#ffffff" d="M 233.625 177.875 L 201.332031 145.582031 C 192.664062 136.90625 169.558594 146.96875 177.464844 154.875 L 200.6875 178.105469 C 201.808594 179.222656 202.710938 180.496094 203.398438 181.925781 C 204.085938 183.351562 204.515625 184.855469 204.691406 186.429688 C 212.691406 195.820312 219.34375 204.941406 220.730469 210.625 L 233.648438 197.710938 C 234.300781 197.058594 234.882812 196.347656 235.394531 195.582031 C 235.90625 194.816406 236.335938 194.007812 236.691406 193.15625 C 237.042969 192.304688 237.308594 191.429688 237.488281 190.523438 C 237.667969 189.621094 237.753906 188.707031 237.753906 187.789062 C 237.753906 186.867188 237.664062 185.953125 237.480469 185.050781 C 237.300781 184.148438 237.03125 183.269531 236.679688 182.417969 C 236.324219 181.570312 235.890625 180.761719 235.375 179.996094 C 234.863281 179.230469 234.277344 178.523438 233.625 177.875 Z M 233.625 177.875 " fill-opacity="1" fill-rule="nonzero"/></g></svg>